<svg xmlns="http://www.w3.org/2000/svg" width="600" height="400" viewBox="0 0 600 400"><rect width="100%" height="100%" fill="#EEE"/><path fill="#31343C" d="m162.52 218.995-28.47-35.49v35.49h-10.76v-55.38h8.34l28.86 36.35v-36.27h10.77v55.3h-8.74Zm37.6.78q-4.99 0-8.97-1.72-3.98-1.71-6.75-4.64-2.77-2.92-4.25-6.74-1.48-3.83-1.48-8.04 0-4.29 1.48-8.11 1.48-3.82 4.25-6.75 2.77-2.92 6.75-4.64 3.98-1.71 8.97-1.71t8.93 1.71q3.94 1.72 6.71 4.64 2.77 2.93 4.25 6.75t1.48 8.11q0 4.21-1.48 8.04-1.48 3.82-4.21 6.74-2.73 2.93-6.71 4.64-3.98 1.72-8.97 1.72Zm-10.69-21.14q0 2.73.82 4.96.82 2.22 2.26 3.86 1.45 1.63 3.4 2.53 1.95.9 4.21.9t4.21-.9q1.95-.9 3.39-2.53 1.45-1.64 2.27-3.9.81-2.27.81-5 0-2.65-.81-4.91-.82-2.26-2.27-3.9-1.44-1.64-3.39-2.54-1.95-.89-4.21-.89t-4.21.93q-1.95.94-3.4 2.58-1.44 1.64-2.26 3.9-.82 2.26-.82 4.91Zm69.58 20.36h-10.77v-55.38h10.77v55.38Zm74.02-25.51v25.51h-10.45v-22.93q0-4.92-1.68-7.18t-4.64-2.26q-3.12 0-5.85 2.38-2.73 2.38-3.9 6.2v23.79h-10.45v-22.93q0-4.92-1.68-7.18t-4.64-2.26q-3.04 0-5.81 2.34-2.77 2.34-3.94 6.16v23.87h-10.45v-40.87h9.44v7.56q2.26-3.97 6.2-6.12 3.94-2.14 9.01-2.14 5.14 0 7.95 2.49 2.81 2.5 3.59 6.16 2.5-4.21 6.32-6.43 3.82-2.22 8.73-2.22 3.75 0 6.17 1.4 2.41 1.4 3.74 3.67 1.33 2.26 1.83 5.14.51 2.89.51 5.85Zm20.28 26.29q-2.96 0-5.54-.98-2.57-.97-4.44-2.72-1.88-1.76-2.93-4.1-1.05-2.34-1.05-5.15 0-2.88 1.29-5.34 1.28-2.46 3.58-4.17 2.3-1.72 5.5-2.7 3.2-.97 7.02-.97 2.73 0 5.35.47 2.61.47 4.64 1.32v-2.34q0-4.05-2.3-6.24-2.31-2.18-6.83-2.18-3.28 0-6.4 1.17-3.12 1.17-6.39 3.43l-3.2-6.63q7.88-5.22 17-5.22 8.82 0 13.69 4.33 4.88 4.32 4.88 12.51v12.72q0 1.64.58 2.34.59.7 1.91.78v8.89q-2.65.55-4.6.55-2.96 0-4.56-1.33-1.6-1.33-1.99-3.51l-.23-2.26q-2.73 3.59-6.63 5.46t-8.35 1.87Zm2.96-7.64q2.66 0 5.04-.94 2.37-.94 3.7-2.5 1.72-1.32 1.72-2.96v-4.68q-1.88-.7-4.06-1.13-2.18-.43-4.21-.43-4.06 0-6.63 1.83-2.58 1.84-2.58 4.64 0 2.66 2.03 4.41 2.03 1.76 4.99 1.76Zm46.65 7.09q-4.14 0-7.49-1.63-3.35-1.64-5.81-4.49-2.46-2.85-3.78-6.59-1.33-3.74-1.33-7.96 0-4.44 1.4-8.26 1.41-3.83 3.9-6.71 2.5-2.89 6.01-4.53 3.51-1.63 7.72-1.63 4.76 0 8.35 2.14 3.59 2.15 5.93 5.73v-7.17h9.12v38.92q0 4.52-1.71 8.11-1.72 3.59-4.72 6.09-3.01 2.49-7.18 3.82-4.17 1.32-9.09 1.32-6.7 0-11.27-2.22-4.56-2.22-7.84-6.28l5.7-5.54q2.34 2.89 5.89 4.53 3.55 1.64 7.52 1.64 2.42 0 4.65-.67 2.22-.66 3.93-2.06 1.72-1.41 2.7-3.59.97-2.19.97-5.15v-5.15q-2.03 3.51-5.69 5.42-3.67 1.91-7.88 1.91Zm3.51-8.34q1.71 0 3.27-.55 1.56-.54 2.89-1.48t2.34-2.18q1.01-1.25 1.56-2.66v-9.75q-1.4-3.58-4.41-5.77-3-2.18-6.28-2.18-2.41 0-4.36 1.05-1.95 1.05-3.36 2.81-1.4 1.75-2.14 4.02-.74 2.26-.74 4.68 0 2.49.85 4.68.86 2.18 2.38 3.82 1.52 1.64 3.55 2.57 2.03.94 4.45.94Zm48.9 8.89q-4.91 0-8.89-1.68-3.98-1.67-6.78-4.56-2.81-2.89-4.33-6.71t-1.52-8.03q0-4.37 1.48-8.23 1.48-3.86 4.29-6.79 2.81-2.92 6.82-4.64 4.02-1.71 9.01-1.71t8.93 1.71q3.94 1.72 6.71 4.6 2.77 2.89 4.21 6.71 1.45 3.82 1.45 7.96 0 1.01-.04 1.95-.04.93-.2 1.56h-31.59q.24 2.42 1.17 4.29.94 1.87 2.42 3.2 1.48 1.32 3.35 2.02 1.88.71 3.9.71 3.12 0 5.89-1.52 2.77-1.53 3.79-4.02l8.97 2.49q-2.27 4.68-7.22 7.69-4.95 3-11.82 3Zm-10.6-24.65h21.21q-.39-4.6-3.39-7.37-3-2.77-7.29-2.77-2.11 0-3.94.74-1.84.74-3.24 2.07-1.4 1.33-2.3 3.2-.9 1.87-1.05 4.13Z"/></svg>